<?xml version="1.0" standalone="no"?>
<!DOCTYPE svg PUBLIC "-//W3C//DTD SVG 20010904//EN"
 "http://www.w3.org/TR/2001/REC-SVG-20010904/DTD/svg10.dtd">
<svg version="1.0" xmlns="http://www.w3.org/2000/svg"
 width="900.000000pt" height="486.000000pt" viewBox="0 0 900.000000 486.000000"
 preserveAspectRatio="xMidYMid meet">
<metadata>
Created by potrace 1.10, written by Peter Selinger 2001-2011
</metadata>
<g transform="translate(0.000000,486.000000) scale(0.100000,-0.100000)"
fill="#3eaf7c" stroke="none">
<path d="M3370 3864 c-54 -19 -88 -48 -106 -91 -44 -102 20 -223 124 -237 24
-3 156 -6 291 -6 266 0 301 -5 406 -56 82 -40 192 -150 233 -234 35 -74 62
-174 62 -238 0 -67 -29 -181 -63 -245 -42 -79 -143 -187 -209 -221 -108 -57
-156 -66 -339 -66 -156 0 -169 1 -179 19 -6 13 -10 155 -10 393 0 417 2 405
-73 462 -66 50 -179 30 -227 -42 l-25 -36 0 -516 0 -516 25 -36 c45 -66 56
-68 386 -68 239 0 308 3 362 16 156 38 300 113 400 208 250 235 344 594 240
911 -102 311 -341 524 -665 591 -117 25 -570 30 -633 8z"/>
<path d="M5215 3590 c-68 -21 -116 -114 -101 -195 6 -29 20 -52 52 -82 42 -41
47 -43 105 -43 107 0 169 61 169 164 0 58 -23 103 -72 139 -30 23 -107 31
-153 17z"/>
<path d="M5189 3142 c-34 -22 -53 -42 -64 -67 -6 -11 -12 -237 -15 -505 -5
-453 -6 -488 -24 -515 -48 -76 -88 -99 -210 -120 -53 -9 -101 -47 -120 -96
-21 -52 -20 -92 3 -137 44 -86 106 -110 234 -91 201 29 366 176 431 383 14 42
16 125 16 554 0 482 -1 506 -19 536 -35 56 -73 76 -143 76 -43 0 -71 -6 -89
-18z"/>
</g>
</svg>
